<svg width="14" height="20" viewBox="0 0 14 20" fill="none" xmlns="http://www.w3.org/2000/svg">
<path d="M6.84814 0C3.1722 0 0.181458 2.99074 0.181458 6.66668C0.181458 7.7702 0.457356 8.86434 0.981848 9.8348L6.48357 19.7852C6.55681 19.9178 6.69638 20 6.84814 20C6.99989 20 7.13947 19.9178 7.21271 19.7852L12.7165 9.83152C13.2389 8.86434 13.5148 7.77016 13.5148 6.66664C13.5148 2.99074 10.5241 0 6.84814 0ZM6.84814 10C5.01017 10 3.51482 8.50465 3.51482 6.66668C3.51482 4.82871 5.01017 3.33336 6.84814 3.33336C8.68611 3.33336 10.1815 4.82871 10.1815 6.66668C10.1815 8.50465 8.68611 10 6.84814 10Z" fill="#2D2A26"/>
</svg>
