<svg width="58" height="58" viewBox="0 0 58 58" fill="none" xmlns="http://www.w3.org/2000/svg">
<g clip-path="url(#clip0_1_2750)">
<path d="M18.3687 24.6164C18.1 24.6164 17.8649 24.482 17.7641 24.2469L6.4778 1.3048C6.27626 0.868131 6.57857 0.330688 7.08242 0.330688H21.6269C21.8957 0.330688 22.1308 0.498639 22.2316 0.73377L29.6214 16.2188C29.7893 16.5883 29.5878 17.025 29.1847 17.1593L25.8929 23.8438L18.9733 24.1797C18.8726 24.4484 18.6374 24.6164 18.3687 24.6164Z" fill="#F6B318" fill-opacity="0.2"/>
<path d="M8.52678 5.43638L7.85498 4.09277H23.8439L24.4821 5.43638H8.52678Z" fill="#757575"/>
<path d="M39.6313 24.65C39.2954 24.65 38.9931 24.3476 38.9595 24.0117L27.5388 21.0558C27.0686 21.6604 26.0945 21.0558 26.4304 20.3504L35.7684 0.76737C35.8692 0.532239 36.1043 0.364288 36.373 0.364288H50.9176C51.3878 0.364288 51.7237 0.90173 51.4886 1.3384L40.2359 24.2805C40.1351 24.5156 39.9 24.65 39.6313 24.65Z" fill="#F6B318" fill-opacity="0.2"/>
<path d="M33.5179 5.43638L34.1561 4.09277H50.145L49.4732 5.43638H33.5179Z" fill="#757575"/>
<path d="M28.9832 57.669C18.5366 57.669 10.0383 49.1707 10.0383 38.7578C10.0383 28.3113 18.5366 19.813 28.9832 19.813C39.3961 19.813 47.8944 28.3113 47.8944 38.7578C47.8944 49.1707 39.3961 57.669 28.9832 57.669Z" fill="#D9D9D9"/>
<path d="M28.5129 19.8466H29.4198V24.3812C29.4198 24.9858 28.5129 24.9858 28.5129 24.3812V19.8466ZM42.0161 25.053C42.2513 25.2546 42.4528 25.4897 42.6543 25.6912L39.4297 28.9159C39.0266 29.319 38.3884 28.7144 38.7915 28.2777L42.0161 25.053ZM47.8944 38.3211V39.1945H43.3261C42.7551 39.1945 42.7551 38.3211 43.3261 38.3211H47.8944ZM42.6543 51.7908C42.4528 52.0259 42.2513 52.2274 42.0161 52.429L38.8251 49.2043C38.3884 48.8012 39.0266 48.163 39.4297 48.5997L42.6543 51.7908ZM28.9832 57.669H28.5129V53.1008C28.5129 52.5298 29.4198 52.5298 29.4198 53.1008V57.669H28.9832ZM15.9166 52.429C15.7151 52.2274 15.4799 52.0259 15.2784 51.7908L18.503 48.5997C18.9061 48.1966 19.5443 48.8012 19.1413 49.2043L15.9166 52.429ZM10.0383 39.1945V38.3211H14.6066C15.2112 38.3211 15.2112 39.1945 14.6066 39.1945H10.0383ZM15.2784 25.6912L15.9166 25.053L19.1413 28.2777C19.5443 28.7144 18.9061 29.319 18.503 28.9159L15.2784 25.6912Z" fill="#F5F4F4"/>
<path d="M28.9832 53.5375C20.8208 53.5375 14.1699 46.9202 14.1699 38.7578C14.1699 30.5954 20.8208 23.9445 28.9832 23.9445C37.1456 23.9445 43.7628 30.5954 43.7628 38.7578C43.7628 46.9202 37.1456 53.5375 28.9832 53.5375Z" fill="#FBFBFB"/>
<path d="M34.6599 47.9279C34.3912 47.9279 29.6214 45.2407 28.9832 44.8712L23.508 47.8943C23.1721 48.0623 22.769 47.7935 22.8362 47.424L24.0118 41.2771L19.4772 37.0111C19.2084 36.7424 19.3428 36.3057 19.7123 36.2385L25.9265 35.466L28.5801 29.8228C28.7144 29.4869 29.2183 29.4869 29.3862 29.8228L32.0399 35.466L38.2204 36.2385C38.5899 36.3057 38.7243 36.7424 38.4892 37.0111L33.9209 41.2771L35.0966 47.424C35.1301 47.6928 34.9286 47.9279 34.6599 47.9279Z" fill="#F6B318"/>
</g>
<defs>
<clipPath id="clip0_1_2750">
<rect width="57.3383" height="57.3383" fill="white" transform="translate(0.330811 0.330688)"/>
</clipPath>
</defs>
</svg>
