<svg width="28" height="28" viewBox="0 0 28 28" fill="none" xmlns="http://www.w3.org/2000/svg">
<g opacity="0.2" clip-path="url(#clip0_1_535)">
<path d="M23.9951 8.94C23.9633 8.41125 23.5247 7.99906 22.9951 8H18.9951V5C18.9951 2.23856 16.7565 0 13.9951 0C11.2336 0 8.99506 2.23856 8.99506 5V8H4.99506C4.46537 7.99906 4.02681 8.41125 3.99506 8.94L3.11506 24.83C3.02118 26.4842 4.28606 27.9013 5.94025 27.9952C5.99843 27.9985 6.05675 28.0001 6.11506 28H21.8851C23.5419 28.0027 24.8872 26.6617 24.8899 25.0048C24.89 24.9465 24.8884 24.8882 24.8851 24.83L23.9951 8.94ZM10.9951 5C10.9951 3.34312 12.3382 2 13.9951 2C15.6519 2 16.9951 3.34312 16.9951 5V8H10.9951V5Z" fill="white"/>
</g>
<defs>
<clipPath id="clip0_1_535">
<rect width="28" height="28" fill="white"/>
</clipPath>
</defs>
</svg>
