<svg width="12" height="20" viewBox="0 0 12 20" fill="none" xmlns="http://www.w3.org/2000/svg">
<path d="M10 0.735291H2.00003C1.61619 0.735524 1.24814 0.888128 0.976748 1.15957C0.705359 1.43102 0.552829 1.7991 0.552673 2.18294V17.8171C0.552829 18.2009 0.705399 18.5691 0.976851 18.8405C1.2483 19.112 1.61643 19.2645 2.00032 19.2647H9.99973C10.3836 19.2645 10.7517 19.112 11.0232 18.8405C11.2947 18.5691 11.4472 18.2009 11.4474 17.8171V2.18294C11.4472 1.79905 11.2947 1.43092 11.0232 1.15947C10.7517 0.888016 10.3839 0.735446 10 0.735291ZM6.0912 2.00911H7.07562C7.23473 2.00911 7.36503 2.13647 7.36503 2.29882C7.36479 2.37551 7.33423 2.44898 7.28 2.50321C7.22578 2.55743 7.1523 2.588 7.07562 2.58823H6.0912C6.05316 2.58835 6.01548 2.58094 5.98031 2.56644C5.94515 2.55194 5.9132 2.53062 5.8863 2.50372C5.8594 2.47683 5.83809 2.44488 5.82358 2.40971C5.80908 2.37455 5.80167 2.33686 5.80179 2.29882C5.80179 2.13647 5.92914 2.00911 6.0912 2.00911ZM4.92444 2.00911H5.02591C5.18767 2.00911 5.31532 2.13647 5.31532 2.29882C5.31544 2.33686 5.30803 2.37455 5.29353 2.40971C5.27902 2.44488 5.25771 2.47683 5.23081 2.50372C5.20392 2.53062 5.17197 2.55194 5.1368 2.56644C5.10163 2.58094 5.06395 2.58835 5.02591 2.58823H4.92444C4.84775 2.588 4.77428 2.55743 4.72005 2.50321C4.66583 2.44898 4.63526 2.37551 4.63503 2.29882C4.63503 2.13647 4.76532 2.00911 4.92444 2.00911ZM6.49356 17.9965H5.5065C5.42976 17.9963 5.35621 17.9658 5.30192 17.9115C5.24763 17.8573 5.21702 17.7838 5.21679 17.7071C5.21664 17.669 5.22402 17.6313 5.23853 17.5961C5.25304 17.5608 5.27438 17.5289 5.30131 17.502C5.32825 17.475 5.36025 17.4537 5.39547 17.4393C5.43069 17.4248 5.46842 17.4174 5.5065 17.4176H6.49356C6.65297 17.4176 6.78326 17.545 6.78326 17.7071C6.78303 17.7838 6.75242 17.8573 6.69813 17.9115C6.64385 17.9658 6.57029 17.9963 6.49356 17.9965ZM10.56 16.1435H1.44003V3.85647H10.56V16.1435Z" fill="#2D2A26"/>
<path d="M5.44827 15.5124H6.5518C6.75268 15.5124 6.91533 15.3388 6.91533 15.1244V13.9403C6.91533 13.7262 6.75268 13.5524 6.5518 13.5524H5.44827C5.24739 13.5524 5.08474 13.7259 5.08474 13.9406V15.1244C5.08474 15.3388 5.24739 15.5124 5.44827 15.5124ZM2.62533 12.6403H3.72886C3.92945 12.6403 4.09239 12.4638 4.09239 12.2497V11.0682C4.09239 10.8541 3.92945 10.6803 3.72886 10.6803H2.62533C2.42445 10.6803 2.25916 10.8538 2.25916 11.0685V12.2497C2.25916 12.4638 2.42445 12.6403 2.62533 12.6403ZM8.27121 12.6403H9.37474C9.57563 12.6403 9.74092 12.4638 9.74092 12.2497V11.0682C9.74092 10.8541 9.57563 10.6803 9.37474 10.6803H8.27121C8.07063 10.6803 7.90768 10.8538 7.90768 11.0685V12.2497C7.90768 12.4638 8.07063 12.6403 8.27121 12.6403ZM8.27121 15.5124H9.37474C9.57563 15.5124 9.74092 15.3388 9.74092 15.1244V13.9403C9.74092 13.7262 9.57563 13.5524 9.37474 13.5524H8.27121C8.07063 13.5524 7.90768 13.7259 7.90768 13.9406V15.1244C7.90768 15.3388 8.07063 15.5124 8.27121 15.5124ZM2.62533 15.5124H3.72886C3.92945 15.5124 4.09239 15.3388 4.09239 15.1244V13.9403C4.09239 13.7262 3.92945 13.5524 3.72886 13.5524H2.62533C2.42445 13.5524 2.25916 13.7259 2.25916 13.9406V15.1244C2.25916 15.3388 2.42445 15.5124 2.62533 15.5124ZM5.44827 12.6403H6.5518C6.75268 12.6403 6.91533 12.4638 6.91533 12.2497V11.0682C6.91533 10.8541 6.75268 10.6803 6.5518 10.6803H5.44827C5.24739 10.6803 5.08474 10.8538 5.08474 11.0685V12.2497C5.08474 12.4638 5.24739 12.6403 5.44827 12.6403Z" fill="#2D2A26"/>
</svg>
