<svg width="15" height="20" viewBox="0 0 15 20" fill="none" xmlns="http://www.w3.org/2000/svg">
<path d="M7.84811 2.45166C6.83805 2.45166 5.85066 2.75117 5.01081 3.31233C4.17097 3.87349 3.51638 4.67108 3.12982 5.60425C2.74327 6.53742 2.64211 7.56427 2.83913 8.55493C3.03615 9.5456 3.52252 10.4556 4.23671 11.1698C4.95091 11.8841 5.86087 12.3705 6.85152 12.5676C7.84217 12.7647 8.86902 12.6637 9.80222 12.2772C10.7354 11.8907 11.5331 11.2362 12.0943 10.3964C12.6555 9.55659 12.9551 8.56923 12.9552 7.55916C12.9538 6.20508 12.4152 4.90686 11.4578 3.94934C10.5004 2.99182 9.20219 2.4532 7.84811 2.45166ZM11.2389 6.68666L9.19728 8.16458C9.192 8.16822 9.18804 8.17348 9.18602 8.17957C9.18399 8.18566 9.18399 8.19224 9.18603 8.19833L9.96103 10.5917C9.96303 10.5978 9.96305 10.6043 9.96108 10.6104C9.95912 10.6166 9.95527 10.6219 9.9501 10.6257C9.94492 10.6295 9.93867 10.6315 9.93225 10.6316C9.92584 10.6316 9.91957 10.6296 9.91436 10.6258L7.8727 9.14749C7.86752 9.14364 7.86124 9.14155 7.85478 9.14155C7.84832 9.14155 7.84204 9.14364 7.83686 9.14749L5.7952 10.625C5.78999 10.6287 5.78372 10.6307 5.77731 10.6307C5.77089 10.6307 5.76464 10.6286 5.75946 10.6248C5.75429 10.6211 5.75044 10.6157 5.74848 10.6096C5.74651 10.6035 5.74653 10.5969 5.74853 10.5908L6.54603 8.19833C6.54801 8.19221 6.54803 8.18563 6.54609 8.17951C6.54415 8.17338 6.54034 8.16802 6.5352 8.16416L4.49353 6.68666C4.48801 6.68274 4.48396 6.6771 4.48201 6.67063C4.48006 6.66415 4.48033 6.65721 4.48276 6.6509C4.4852 6.64459 4.48967 6.63927 4.49547 6.63579C4.50127 6.6323 4.50806 6.63085 4.51478 6.63166H7.01186C7.01825 6.6317 7.02448 6.6297 7.02965 6.62595C7.03482 6.62221 7.03866 6.61691 7.04061 6.61083L7.82728 4.21124C7.82913 4.20505 7.83292 4.19962 7.8381 4.19576C7.84328 4.1919 7.84957 4.18981 7.85603 4.18981C7.86249 4.18981 7.86878 4.1919 7.87396 4.19576C7.87914 4.19962 7.88293 4.20505 7.88478 4.21124L8.67145 6.61083C8.67334 6.61694 8.67716 6.62228 8.68235 6.62604C8.68753 6.62979 8.6938 6.63177 8.7002 6.63166H11.2231C11.2294 6.63207 11.2353 6.6344 11.2402 6.63832C11.2451 6.64225 11.2486 6.64758 11.2504 6.6536C11.2521 6.65961 11.2519 6.66602 11.2499 6.67193C11.2478 6.67785 11.244 6.68299 11.2389 6.68666Z" fill="#2D2A26"/>
<path d="M7.84812 0.416687C6.43543 0.416605 5.05445 0.835445 3.8798 1.62024C2.70516 2.40504 1.78962 3.52054 1.24897 4.82568C0.708323 6.13082 0.566843 7.56697 0.842424 8.95252C1.11801 10.3381 1.79827 11.6108 2.79719 12.6097C3.79611 13.6086 5.06883 14.2889 6.45437 14.5645C7.83992 14.84 9.27607 14.6986 10.5812 14.1579C11.8864 13.6173 13.0019 12.7017 13.7866 11.5271C14.5714 10.3524 14.9903 8.97146 14.9902 7.55877C14.9902 5.66457 14.2377 3.84796 12.8983 2.50855C11.5589 1.16915 9.74232 0.416687 7.84812 0.416687ZM7.84812 13.5C6.67323 13.5 5.52473 13.1516 4.54785 12.4989C3.57096 11.8462 2.80956 10.9184 2.35993 9.833C1.9103 8.74755 1.79264 7.55316 2.02182 6.40084C2.251 5.24852 2.81672 4.19004 3.64746 3.35924C4.4782 2.52844 5.53665 1.96264 6.68895 1.73338C7.84125 1.50412 9.03565 1.6217 10.1211 2.07125C11.2066 2.52081 12.1344 3.28214 12.7872 4.25898C13.44 5.23582 13.7885 6.3843 13.7885 7.55919C13.7869 9.13421 13.1605 10.6443 12.0468 11.758C10.9332 12.8718 9.42315 13.4983 7.84812 13.5Z" fill="#2D2A26"/>
<path d="M1.68976 17.7104L3.98559 17.5059L4.80643 19.1954L4.99309 19.5834L7.17268 15.5C5.87119 15.3912 4.61692 14.9617 3.52184 14.25L1.68976 17.7104ZM8.56559 15.5L10.7402 19.5834L10.9268 19.1954L11.7489 17.5059L14.0448 17.7104L12.2068 14.2296C11.1163 14.9465 9.86546 15.3829 8.56559 15.5Z" fill="#2D2A26"/>
</svg>
