<svg width="18" height="18" viewBox="0 0 18 18" fill="none" xmlns="http://www.w3.org/2000/svg">
<path d="M8.375 14C8.37666 12.76 8.83838 11.5648 9.67074 10.6457C10.5031 9.72663 11.6469 9.14912 12.8806 9.02498C12.5654 8.62628 12.1638 8.30436 11.706 8.0835C11.2483 7.86263 10.7464 7.74859 10.2381 7.74998C10.1411 7.74998 10.0454 7.77257 9.95862 7.81596C9.87183 7.85936 9.79634 7.92236 9.73812 7.99998C8.70813 9.36061 5.54375 9.36061 4.51375 7.99998C4.45533 7.92257 4.3798 7.85973 4.29306 7.81636C4.20632 7.77299 4.11073 7.75027 4.01375 7.74998C3.17008 7.74573 2.35569 8.05909 1.73247 8.62778C1.10925 9.19646 0.722821 9.97882 0.65 10.8194L0.25 15.25C0.25 15.913 0.513392 16.5489 0.982233 17.0177C1.45107 17.4866 2.08696 17.75 2.75 17.75H10.0787C9.54397 17.2824 9.1153 16.7059 8.82146 16.0592C8.52762 15.4124 8.3754 14.7104 8.375 14Z" fill="#9A3324"/>
<path d="M7.125 0.25C2.125 0.25 2.125 7.75 7.125 7.75C12.125 7.75 12.125 0.25 7.125 0.25ZM13.375 10.25C12.6333 10.25 11.9083 10.4699 11.2916 10.882C10.6749 11.294 10.1943 11.8797 9.91045 12.5649C9.62662 13.2502 9.55236 14.0042 9.69705 14.7316C9.84175 15.459 10.1989 16.1272 10.7233 16.6517C11.2478 17.1761 11.916 17.5333 12.6434 17.6779C13.3708 17.8226 14.1248 17.7484 14.8101 17.4645C15.4953 17.1807 16.081 16.7001 16.493 16.0834C16.9051 15.4667 17.125 14.7417 17.125 14C17.1238 13.0058 16.7284 12.0526 16.0254 11.3496C15.3224 10.6466 14.3692 10.2512 13.375 10.25ZM14.625 14.625H12.125C11.9592 14.625 11.8003 14.5592 11.6831 14.4419C11.5658 14.3247 11.5 14.1658 11.5 14C11.5 13.8342 11.5658 13.6753 11.6831 13.5581C11.8003 13.4408 11.9592 13.375 12.125 13.375H14.625C14.7908 13.375 14.9497 13.4408 15.0669 13.5581C15.1842 13.6753 15.25 13.8342 15.25 14C15.25 14.1658 15.1842 14.3247 15.0669 14.4419C14.9497 14.5592 14.7908 14.625 14.625 14.625Z" fill="#9A3324"/>
</svg>
