<svg width="20" height="19" viewBox="0 0 20 19" fill="none" xmlns="http://www.w3.org/2000/svg">
<path d="M14.2158 0.823532C12.6112 0.823532 11.0712 1.58589 10.066 2.79059C9.06086 1.58589 7.52084 0.823532 5.91626 0.823532C3.07598 0.823532 0.84433 3.10118 0.84433 6C0.84433 9.55765 3.97971 12.4565 8.72888 16.8612L10.066 18.0941L11.4032 16.8518C16.1523 12.4565 19.2877 9.55765 19.2877 6C19.2877 3.10118 17.0561 0.823532 14.2158 0.823532ZM10.1582 15.4588L10.066 15.5529L9.97381 15.4588C5.58428 11.4024 2.68867 8.72 2.68867 6C2.68867 4.11765 4.07192 2.70588 5.91626 2.70588C7.33641 2.70588 8.71966 3.63765 9.20841 4.92706H10.9329C11.4124 3.63765 12.7957 2.70588 14.2158 2.70588C16.0601 2.70588 17.4434 4.11765 17.4434 6C17.4434 8.72 14.5478 11.4024 10.1582 15.4588Z" fill="black"/>
</svg>
