<svg width="56" height="56" viewBox="0 0 56 56" fill="none" xmlns="http://www.w3.org/2000/svg">
<path d="M26.5376 0.564056H29.7709V7.13829H26.5376V0.564056ZM26.5376 49.1703H29.7709V55.7445H26.5376V49.1703ZM9.86461 7.57866L14.4366 12.1507L12.1506 14.4366L7.57861 9.86466L9.86461 7.57866Z" fill="#D9D9D9"/>
<path d="M44.1579 41.871L48.7299 46.443L46.444 48.729L41.8719 44.157L44.1579 41.871Z" fill="#757575"/>
<path d="M0.564026 26.5377H7.13826V29.7709H0.564026V26.5377Z" fill="#D9D9D9"/>
<path d="M49.1702 26.5377H55.7445V29.7709H49.1702V26.5377Z" fill="#757575"/>
<path d="M12.151 41.8715L14.4369 44.1575L9.86504 48.7295L7.57904 46.4436L12.151 41.8715Z" fill="#D9D9D9"/>
<path d="M46.4436 7.57822L48.7295 9.86422L44.1575 14.4362L41.8716 12.1502L46.4436 7.57822Z" fill="#757575"/>
<path d="M28.1542 43.0115L27.2764 42.4449C16.7037 35.6155 11.9881 29.8181 11.9881 23.6471C11.9881 18.0159 15.8936 13.6047 20.8795 13.6047C24.3543 13.6047 26.7742 15.2816 28.1542 16.6186C29.5343 15.2816 31.9542 13.6047 35.429 13.6047C40.4149 13.6047 44.3204 18.0159 44.3204 23.6471C44.3204 29.8184 39.6048 35.6155 29.0321 42.4449L28.1542 43.0115Z" fill="#F6B318" fill-opacity="0.2"/>
<path d="M28.1542 0.564056H29.7709V7.13829H28.1542V0.564056Z" fill="#757575"/>
<path d="M28.1542 49.1703H29.7709V55.7445H28.1542V49.1703Z" fill="#757575"/>
<path d="M29.0321 42.4449C39.6048 35.6155 44.3204 29.8181 44.3204 23.6471C44.3204 18.0159 40.4149 13.6047 35.429 13.6047C31.9541 13.6047 29.5343 15.2816 28.1542 16.6186V43.0115L29.0321 42.4449Z" fill="#F6B318"/>
</svg>
