<svg width="12" height="14" viewBox="0 0 12 14" fill="none" xmlns="http://www.w3.org/2000/svg">
<path fill-rule="evenodd" clip-rule="evenodd" d="M11.1562 7.86719C11.1562 10.7125 8.84062 13.0234 6 13.0234C3.15469 13.0234 0.84375 10.7078 0.84375 7.86719C0.84375 6.11406 1.72031 4.49688 3.19219 3.54531C3.53906 3.32031 4.00312 3.41875 4.22812 3.76562C4.45312 4.1125 4.35469 4.57656 4.00781 4.80156C2.9625 5.47656 2.34375 6.625 2.34375 7.86719C2.34375 9.88281 3.98438 11.5234 6 11.5234C8.01562 11.5234 9.65625 9.88281 9.65625 7.86719C9.65625 6.625 9.03281 5.47656 7.99219 4.80156C7.64531 4.57656 7.54687 4.1125 7.77187 3.76562C7.99687 3.41875 8.46094 3.32031 8.80781 3.54531C10.2797 4.49688 11.1562 6.11406 11.1562 7.86719ZM5.25 5.19062V1.72656C5.25 1.31406 5.5875 0.976562 6 0.976562C6.4125 0.976562 6.75 1.31406 6.75 1.72656V5.19062C6.75 5.60312 6.4125 5.94062 6 5.94062C5.5875 5.94062 5.25 5.60312 5.25 5.19062Z" fill="white"/>
</svg>
