<svg width="24" height="6" viewBox="0 0 24 6" fill="none" xmlns="http://www.w3.org/2000/svg">
<path d="M23.1216 5.12131C21.95 6.29288 20.0505 6.29288 18.8789 5.12131C17.7074 3.94974 17.7074 2.05024 18.8789 0.878676C20.0505 -0.292892 21.95 -0.292892 23.1216 0.878676C24.2931 2.0502 24.2931 3.9497 23.1216 5.12131Z" fill="#2D2A26"/>
<path d="M14.1213 5.12131C12.9497 6.29288 11.0502 6.29288 9.87866 5.12131C8.70709 3.94974 8.70709 2.05024 9.87866 0.878676C11.0502 -0.292892 12.9497 -0.292892 14.1213 0.878676C15.2929 2.0502 15.2929 3.9497 14.1213 5.12131Z" fill="#2D2A26"/>
<path d="M5.12135 5.12131C3.94979 6.29288 2.05029 6.29288 0.878718 5.12131C-0.29285 3.94974 -0.29285 2.05024 0.878718 0.878676C2.05029 -0.292892 3.94979 -0.292892 5.12135 0.878676C6.29292 2.0502 6.29292 3.9497 5.12135 5.12131Z" fill="#2D2A26"/>
</svg>
