<svg width="18" height="19" viewBox="0 0 18 19" fill="none" xmlns="http://www.w3.org/2000/svg">
<path d="M16.8146 13.1181C16.7442 13.0332 16.6751 12.9484 16.6073 12.8666C15.6742 11.738 15.1097 11.0569 15.1097 7.8621C15.1097 6.20808 14.714 4.85094 13.9341 3.83308C13.359 3.08114 12.5816 2.51071 11.557 2.08915C11.5438 2.08182 11.532 2.0722 11.5222 2.06074C11.1537 0.826585 10.1451 0 9.00768 0C7.87022 0 6.86212 0.826585 6.49357 2.05946C6.48374 2.0705 6.47213 2.07982 6.45922 2.08703C4.0681 3.07138 2.90605 4.95993 2.90605 7.86083C2.90605 11.0569 2.34241 11.738 1.40853 12.8653C1.34067 12.9471 1.27154 13.0303 1.20114 13.1168C1.01928 13.3361 0.904062 13.6029 0.869112 13.8857C0.834163 14.1684 0.880947 14.4553 1.00393 14.7123C1.2656 15.2636 1.82331 15.6059 2.45989 15.6059H15.5601C16.1938 15.6059 16.7476 15.264 17.0102 14.7152C17.1337 14.4582 17.1809 14.1711 17.1462 13.888C17.1116 13.6049 16.9965 13.3377 16.8146 13.1181ZM9.00768 19C9.62053 18.9995 10.2218 18.8331 10.7478 18.5186C11.2737 18.204 11.7047 17.7529 11.9951 17.2132C12.0088 17.1874 12.0155 17.1584 12.0147 17.1292C12.0139 17.0999 12.0055 17.0714 11.9904 17.0463C11.9753 17.0213 11.954 17.0005 11.9285 16.9862C11.903 16.9718 11.8742 16.9643 11.845 16.9643H6.17125C6.14196 16.9642 6.11313 16.9717 6.08759 16.986C6.06205 17.0004 6.04066 17.0211 6.0255 17.0461C6.01033 17.0712 6.00192 17.0998 6.00108 17.1291C6.00024 17.1583 6.007 17.1873 6.02069 17.2132C6.31101 17.7529 6.74195 18.2039 7.26783 18.5185C7.7937 18.833 8.3949 18.9994 9.00768 19Z" fill="#2D2A26"/>
</svg>
