<svg width="19" height="18" viewBox="0 0 19 18" fill="none" xmlns="http://www.w3.org/2000/svg">
<path d="M18.5425 7.59377L14.6494 11.3888L15.5688 16.7488C15.5885 16.8637 15.5756 16.9819 15.5316 17.0899C15.4877 17.1979 15.4144 17.2915 15.3201 17.36C15.2257 17.4285 15.1141 17.4693 14.9978 17.4777C14.8814 17.4861 14.7651 17.4618 14.6619 17.4075L9.84813 14.8769L5.03501 17.4069C4.93179 17.4612 4.81545 17.4855 4.69914 17.4771C4.58283 17.4687 4.47119 17.4279 4.37684 17.3594C4.28249 17.2908 4.20919 17.1973 4.16524 17.0893C4.12129 16.9812 4.10844 16.8631 4.12813 16.7481L5.04751 11.3881L1.15376 7.59377C1.07018 7.51234 1.01107 7.40914 0.983109 7.29586C0.955152 7.18257 0.959467 7.06372 0.995565 6.95276C1.03166 6.8418 1.0981 6.74316 1.18736 6.66801C1.27662 6.59285 1.38514 6.54419 1.50063 6.52752L6.88126 5.74627L9.28751 0.870022C9.49813 0.443147 10.1981 0.443147 10.4088 0.870022L12.815 5.74627L18.1956 6.52752C18.3109 6.54462 18.419 6.59353 18.508 6.66874C18.597 6.74394 18.6632 6.84247 18.6992 6.95324C18.7352 7.06402 18.7397 7.18265 18.712 7.2958C18.6843 7.40895 18.6256 7.51214 18.5425 7.59377Z" fill="#2D2A26"/>
</svg>
