<svg width="24" height="24" viewBox="0 0 24 24" fill="none" xmlns="http://www.w3.org/2000/svg">
<path d="M22.65 21.1741L15.6937 14.2179C16.7732 12.8223 17.3571 11.1161 17.3571 9.32143C17.3571 7.17321 16.5187 5.15893 15.0027 3.64018C13.4866 2.12143 11.467 1.28571 9.32142 1.28571C7.17588 1.28571 5.15624 2.12411 3.64017 3.64018C2.12142 5.15625 1.28571 7.17321 1.28571 9.32143C1.28571 11.467 2.1241 13.4866 3.64017 15.0027C5.15624 16.5214 7.17321 17.3571 9.32142 17.3571C11.1161 17.3571 12.8196 16.7732 14.2152 15.6964L21.1714 22.65C21.1918 22.6704 21.216 22.6866 21.2427 22.6976C21.2694 22.7087 21.2979 22.7144 21.3268 22.7144C21.3556 22.7144 21.3842 22.7087 21.4109 22.6976C21.4375 22.6866 21.4617 22.6704 21.4821 22.65L22.65 21.4848C22.6704 21.4644 22.6866 21.4402 22.6976 21.4135C22.7087 21.3869 22.7144 21.3583 22.7144 21.3295C22.7144 21.3006 22.7087 21.272 22.6976 21.2454C22.6866 21.2187 22.6704 21.1945 22.65 21.1741ZM13.5643 13.5643C12.4286 14.6973 10.9232 15.3214 9.32142 15.3214C7.71963 15.3214 6.21428 14.6973 5.07856 13.5643C3.94553 12.4286 3.32142 10.9232 3.32142 9.32143C3.32142 7.71964 3.94553 6.21161 5.07856 5.07857C6.21428 3.94553 7.71963 3.32143 9.32142 3.32143C10.9232 3.32143 12.4312 3.94286 13.5643 5.07857C14.6973 6.21428 15.3214 7.71964 15.3214 9.32143C15.3214 10.9232 14.6973 12.4312 13.5643 13.5643Z" fill="black"/>
</svg>
