<svg width="40" height="45" viewBox="0 0 40 45" fill="none" xmlns="http://www.w3.org/2000/svg">
<path d="M35.1487 5.81897L40 16.5973V44.9808H30.2938V16.5973L35.1487 5.81897Z" fill="#D9D9D9"/>
<path d="M33.3452 0.788696H7.29699C6.82048 0.788696 6.3635 0.977989 6.02655 1.31493C5.68961 1.65187 5.50032 2.10886 5.50032 2.58537V5.81903H35.1419V2.58537C35.1419 2.10886 34.9526 1.65187 34.6157 1.31493C34.2787 0.977989 33.8218 0.788696 33.3452 0.788696Z" fill="#F2F2F2"/>
<path d="M0.653015 16.5973V44.9791H30.2911V16.5973L35.1425 5.81897H5.50263L0.653015 16.5973Z" fill="#FBFBFB"/>
<path d="M6.04968 26.2787C6.67467 24.6352 7.72864 23.1892 9.10194 22.0911C10.4752 20.9931 12.1177 20.2831 13.8584 20.035C15.5992 19.7869 17.3746 20.0098 18.9999 20.6805C20.6253 21.3512 22.0413 22.4452 23.1005 23.8486L25.2885 23.5363C24.0778 21.5868 22.3258 20.0318 20.2463 19.061C18.1669 18.0902 15.8498 17.7457 13.5779 18.0694C11.3059 18.3931 9.17729 19.371 7.45168 20.8839C5.72607 22.3968 4.4781 24.3792 3.86 26.5893L6.04968 26.2787Z" fill="#F6B318"/>
<path d="M22.8558 36.015C21.9476 37.1223 20.8086 38.0179 19.5184 38.6393C18.2282 39.2607 16.8179 39.593 15.386 39.6129C13.9541 39.6327 12.5351 39.3398 11.2282 38.7544C9.9212 38.169 8.7578 37.3054 7.81921 36.2238L5.55933 36.5467C6.70142 38.1809 8.23825 39.4997 10.0269 40.3805C11.8155 41.2613 13.7979 41.6754 15.7896 41.5844C17.7812 41.4933 19.7175 40.9001 21.4183 39.8598C23.1192 38.8194 24.5293 37.3659 25.5175 35.6343L22.8558 36.015Z" fill="#F6B318"/>
<path d="M16.5043 35.2853L16.4517 35.0133C16.408 35.0078 16.3638 35.0078 16.3201 35.0133C16.0815 35.0484 15.9692 35.1466 16.0464 35.659C16.1095 36.1099 16.2394 36.1766 16.5061 36.138C16.6121 36.1219 16.7155 36.0912 16.8131 36.0467L16.8816 36.2713C16.756 36.3237 16.6246 36.3608 16.4903 36.3819C16.0411 36.445 15.8165 36.3292 15.727 35.7116C15.6305 35.0379 15.8516 34.8431 16.2973 34.7817C16.4138 34.7667 16.5317 34.7667 16.6482 34.7817L16.7114 35.2607L16.5043 35.2853Z" fill="#2D2A26"/>
<path d="M17.4642 36.0169L17.6396 35.9818L17.4782 34.8501L17.2922 34.8677L17.2641 34.6659L17.9361 34.5694L17.9642 34.7712L17.7888 34.8028L17.8502 35.2274L18.4467 35.1432L18.3871 34.7185L18.2116 34.7361L18.1835 34.5343L18.8538 34.4396L18.8836 34.6413L18.6994 34.6764L18.8608 35.8081L19.0468 35.7906L19.0749 35.9924L18.4046 36.0871L18.3765 35.8853L18.552 35.8538L18.4853 35.3853L17.887 35.4713L17.9537 35.9397L18.1291 35.9222L18.1572 36.1239L17.4852 36.2205L17.4642 36.0169Z" fill="#2D2A26"/>
<path d="M19.6625 35.6973L19.838 35.6622L19.6765 34.5306L19.4906 34.5481L19.4625 34.3463L20.1485 34.248L20.1766 34.4498L20.0011 34.4849L20.1626 35.6184L20.3486 35.6008L20.3766 35.8026L19.6906 35.9008L19.6625 35.6973Z" fill="#2D2A26"/>
<path d="M21.6954 34.5553L21.6427 34.2834C21.599 34.2779 21.5548 34.2779 21.5112 34.2834C21.2725 34.3185 21.1602 34.4167 21.2374 34.9291C21.3006 35.38 21.4304 35.4466 21.6971 35.408C21.8032 35.392 21.9065 35.3613 22.0042 35.3168L22.0726 35.5414C21.947 35.5937 21.8157 35.6308 21.6813 35.6519C21.2322 35.7151 21.0076 35.5993 20.9181 34.9817C20.8216 34.3079 21.0427 34.1132 21.4883 34.0518C21.6048 34.0368 21.7228 34.0368 21.8392 34.0518L21.9024 34.5308L21.6954 34.5553Z" fill="#2D2A26"/>
<path d="M22.6554 35.2762L22.8308 35.2411L22.6694 34.1094L22.4834 34.127L22.4553 33.9252L23.0922 33.834L23.1203 34.0287L22.9835 34.0533L23.0589 34.5797L23.4554 33.9936L23.3098 34.0077L23.2817 33.8129L23.9186 33.7217L23.9467 33.9235L23.8204 33.948L23.4063 34.5498L24.0081 35.0762L24.1397 35.0622L24.1678 35.2639L23.5063 35.3569L23.4782 35.1639L23.6239 35.1376L23.08 34.6481L23.1607 35.2113L23.2975 35.1955L23.3256 35.3903L22.6887 35.4815L22.6554 35.2762Z" fill="#2D2A26"/>
<path d="M25.4982 34.5061L25.4684 34.378L25.1297 34.4271L25.1946 34.8903L25.6421 34.8272L25.6263 34.6377L25.8421 34.6061L25.9017 35.0184L24.7245 35.1939L24.6963 34.9921L24.8718 34.957L24.7104 33.8236L24.5244 33.8411L24.4964 33.6393L25.6736 33.4639L25.7298 33.8622L25.514 33.8937L25.4771 33.7183L25.0297 33.7814L25.0911 34.2148L25.4298 34.1657V34.0376L25.6245 34.0095L25.6894 34.4727L25.4982 34.5061Z" fill="#2D2A26"/>
<path d="M26.5328 34.9289L26.5048 34.7271L26.6802 34.6921L26.5188 33.5604L26.3328 33.5779L26.3047 33.3761L26.9065 33.2901L27.4733 34.0411C27.5716 34.1734 27.6624 34.311 27.7452 34.4534C27.7066 34.3025 27.6715 34.1376 27.6522 34.0148L27.5662 33.4042L27.3908 33.4218L27.3627 33.2235L27.9786 33.1357L28.0066 33.3375L27.8417 33.3674L28.033 34.7113L27.6206 34.771L27.0522 34.02C26.9539 33.8878 26.8631 33.7501 26.7802 33.6077H26.7714C26.81 33.7586 26.8469 33.9235 26.8644 34.0464L26.9504 34.6552L27.1258 34.6377L27.1539 34.8359L26.5328 34.9289Z" fill="#2D2A26"/>
<path d="M24.6159 25.8173C24.6741 25.8064 24.734 25.8079 24.7917 25.8215C24.8494 25.835 24.9037 25.8605 24.951 25.8963C25.1422 26.0419 25.265 26.37 25.3493 26.963L27.1652 26.5156C27.1286 25.7556 26.7938 25.0407 26.2336 24.5259C25.9904 24.363 25.7166 24.2511 25.4289 24.1971C25.1411 24.1431 24.8454 24.1481 24.5597 24.2119C23.8701 24.2786 23.2305 24.6009 22.7665 25.1155C22.5578 25.3863 22.4091 25.6985 22.3305 26.0313C22.2518 26.3641 22.2449 26.7098 22.3104 27.0455C22.5349 28.6018 23.6193 29.0229 24.5772 29.3931H24.5878C25.2896 29.6563 25.9107 29.8844 26.0055 30.5371C26.0394 30.6921 26.0247 30.8539 25.9634 31.0003C25.932 31.0574 25.8868 31.1058 25.8319 31.141C25.7771 31.1763 25.7143 31.1973 25.6493 31.2021C25.1492 31.274 24.8896 30.9371 24.7352 30.0019L22.8578 30.4844C22.842 30.4885 22.8252 30.4867 22.8106 30.4793C22.7961 30.4718 22.7848 30.4593 22.7788 30.4441L20.7576 25.0786L18.2521 25.4401L17.8222 32.5285C17.8212 32.5428 17.8156 32.5564 17.8062 32.5673C17.7969 32.5781 17.7843 32.5857 17.7703 32.5889C17.7564 32.592 17.7417 32.5906 17.7286 32.5848C17.7155 32.5789 17.7046 32.569 17.6976 32.5566L16.2273 29.7651C16.2219 29.7503 16.2219 29.7342 16.2273 29.7195L17.3063 24.5628L15.171 24.8628L14.6552 28.4509C14.6531 28.465 14.6465 28.4781 14.6364 28.4882C14.6263 28.4983 14.6132 28.5049 14.599 28.507H14.5412C14.5269 28.5091 14.5123 28.5064 14.4996 28.4995C14.487 28.4925 14.4769 28.4816 14.471 28.4685L13.3796 26.1138L2.58205 27.6403L2.82066 29.2983L4.18747 29.1036C4.20445 29.1011 4.22173 29.1054 4.23554 29.1156C4.24935 29.1258 4.25857 29.141 4.26117 29.158L5.17353 35.6499L7.05091 35.3867L6.13855 28.8948C6.13602 28.8775 6.14043 28.8598 6.15082 28.8457C6.15589 28.8385 6.16242 28.8324 6.16998 28.8279C6.17753 28.8233 6.18595 28.8204 6.19469 28.8194L7.36674 28.6544C7.37527 28.6532 7.38397 28.6537 7.39232 28.6558C7.40067 28.658 7.40851 28.6618 7.41537 28.6671C7.42223 28.6723 7.42797 28.6788 7.43228 28.6863C7.43658 28.6937 7.43935 28.702 7.44043 28.7106L8.35281 35.2025L12.2935 34.648H12.3023C12.3122 34.6478 12.3219 34.6498 12.3309 34.6539C12.3399 34.658 12.3478 34.6641 12.354 34.6717C12.3603 34.6793 12.3647 34.6882 12.367 34.6978C12.3693 34.7074 12.3694 34.7174 12.3672 34.727L11.9707 36.7851L14.3236 36.471L14.8763 31.5407C14.8783 31.5263 14.8848 31.513 14.8949 31.5026C14.905 31.4922 14.9181 31.4852 14.9324 31.4828H14.978C14.9923 31.4807 15.0069 31.4834 15.0196 31.4904C15.0322 31.4973 15.0423 31.5082 15.0482 31.5214L16.1869 34.1111L19.6961 33.6163L19.7241 31.9372C19.7247 31.9218 19.7307 31.9071 19.7409 31.8956C19.7511 31.8841 19.7651 31.8765 19.7803 31.8741L21.1383 31.6793C21.1538 31.6769 21.1696 31.6803 21.1828 31.6887C21.196 31.697 21.2058 31.7099 21.2102 31.7249L21.7121 33.3356L23.7438 33.0479L23.4806 32.3092C23.4771 32.2971 23.477 32.2843 23.4804 32.2722C23.4838 32.2601 23.4906 32.2492 23.4999 32.2408C23.5116 32.2312 23.5261 32.226 23.5412 32.226C23.5562 32.226 23.5708 32.2312 23.5824 32.2408C23.8762 32.4952 24.2272 32.6748 24.6054 32.7643C24.9836 32.8539 25.3779 32.8506 25.7546 32.7548C26.0958 32.7361 26.4286 32.6413 26.7285 32.4776C27.0285 32.3138 27.288 32.0851 27.4883 31.8081C27.6886 31.5312 27.8245 31.213 27.886 30.8769C27.9476 30.5407 27.9333 30.195 27.8442 29.8651C27.6267 28.3526 26.4406 27.8807 25.5019 27.4999L25.3738 27.449C24.7369 27.1753 24.3211 26.9525 24.2316 26.3805C24.2084 26.2568 24.2275 26.1288 24.286 26.0173C24.3218 25.9608 24.3702 25.9133 24.4274 25.8786C24.4847 25.8439 24.5492 25.8229 24.6159 25.8173ZM13.334 30.2177L12.7778 32.8145C12.7748 32.8274 12.7681 32.8392 12.7584 32.8482C12.7487 32.8573 12.7365 32.8633 12.7234 32.8654L10.0389 33.2409H10.0302C10.0156 33.2405 10.0015 33.2356 9.98981 33.2268C9.98268 33.2217 9.97667 33.2151 9.97214 33.2076C9.96762 33.2 9.96468 33.1917 9.9635 33.183L9.74418 31.6144C9.74272 31.6058 9.74307 31.597 9.74518 31.5885C9.74729 31.5801 9.75113 31.5722 9.75645 31.5653C9.7616 31.5581 9.76815 31.5521 9.77569 31.5476C9.78323 31.5431 9.7916 31.5401 9.80032 31.5389L11.6847 31.267L11.4531 29.6528L9.57398 29.923C9.56539 29.9244 9.55659 29.9241 9.54813 29.922C9.53968 29.9199 9.53175 29.916 9.52486 29.9107C9.51773 29.9055 9.51171 29.899 9.50719 29.8915C9.50266 29.8839 9.49973 29.8755 9.49854 29.8668L9.30026 28.4632C9.29881 28.4546 9.29915 28.4458 9.30126 28.4373C9.30338 28.4289 9.30722 28.4209 9.31255 28.4141C9.3177 28.4069 9.32425 28.4009 9.33179 28.3964C9.33933 28.3919 9.3477 28.3889 9.35642 28.3877L12.0532 28.0087C12.0664 28.0068 12.0798 28.0089 12.0918 28.0149C12.1037 28.0209 12.1135 28.0303 12.1198 28.0421L13.327 30.1704C13.3344 30.185 13.338 30.2018 13.334 30.2177ZM20.6646 30.102C20.6595 30.1099 20.6528 30.1166 20.645 30.1217C20.6371 30.1269 20.6282 30.1303 20.619 30.1318L19.8101 30.2476H19.8013C19.7859 30.2475 19.7709 30.2419 19.7592 30.2318C19.7522 30.2256 19.7465 30.2181 19.7426 30.2096C19.7387 30.2012 19.7366 30.192 19.7364 30.1826L19.7154 27.3754C19.7156 27.3597 19.7213 27.3445 19.7316 27.3327C19.7419 27.3208 19.756 27.3129 19.7715 27.3104L19.8399 27.3017C19.8559 27.2993 19.8721 27.3028 19.8856 27.3115C19.8992 27.3202 19.9091 27.3336 19.9136 27.349L20.6769 30.0581C20.6776 30.0736 20.6733 30.089 20.6646 30.102Z" fill="#2D2A26"/>
<path d="M27.1155 24.2926L26.9891 24.3101L27.0593 24.7962L26.9418 24.8137L26.8716 24.3277L26.7453 24.3452L26.7312 24.2487L27.1032 24.1943L27.1155 24.2926Z" fill="#2D2A26"/>
<path d="M27.3281 24.1627L27.4702 24.5609L27.4948 24.1381L27.6702 24.1135L27.7544 24.696L27.6474 24.7118L27.5789 24.2486L27.5421 24.7276L27.4509 24.7417L27.2755 24.2925L27.3439 24.7557L27.2368 24.7715L27.1526 24.189L27.3281 24.1627Z" fill="#2D2A26"/>
<path d="M14.877 21.3311L11.8627 24.2928L13.4804 24.0576L14.2348 25.5087L14.877 21.3311Z" fill="#F6B318"/>
<path d="M13.5546 22.3767L12.2668 21.7188L12.9282 22.9926L13.5546 22.3767Z" fill="#F6B318"/>
<path d="M14.8041 23.0173L14.6707 23.8946L16.0972 23.6876L14.8041 23.0173Z" fill="#F6B318"/>
</svg>
