<svg width="11" height="12" viewBox="0 0 11 12" fill="none" xmlns="http://www.w3.org/2000/svg">
<path d="M1.57327 1.02169C1.37913 1.02169 1.19295 1.10238 1.05567 1.24601C0.918398 1.38965 0.841278 1.58445 0.841278 1.78758V2.55347C0.841278 2.7566 0.918398 2.95141 1.05567 3.09504C1.19295 3.23867 1.37913 3.31936 1.57327 3.31936H1.93926V10.2124C1.93926 10.6186 2.0935 11.0083 2.36805 11.2955C2.6426 11.5828 3.01497 11.7442 3.40324 11.7442H7.79519C8.18346 11.7442 8.55583 11.5828 8.83038 11.2955C9.10493 11.0083 9.25917 10.6186 9.25917 10.2124V3.31936H9.62516C9.8193 3.31936 10.0055 3.23867 10.1428 3.09504C10.28 2.95141 10.3572 2.7566 10.3572 2.55347V1.78758C10.3572 1.58445 10.28 1.38965 10.1428 1.24601C10.0055 1.10238 9.8193 1.02169 9.62516 1.02169H7.0632C7.0632 0.818563 6.98608 0.623755 6.8488 0.480123C6.71153 0.33649 6.52534 0.255798 6.33121 0.255798H4.86722C4.67309 0.255798 4.4869 0.33649 4.34963 0.480123C4.21235 0.623755 4.13523 0.818563 4.13523 1.02169H1.57327ZM3.76924 4.08526C3.86631 4.08526 3.9594 4.1256 4.02804 4.19742C4.09667 4.26923 4.13523 4.36664 4.13523 4.4682V9.82944C4.13523 9.93101 4.09667 10.0284 4.02804 10.1002C3.9594 10.172 3.86631 10.2124 3.76924 10.2124C3.67217 10.2124 3.57908 10.172 3.51044 10.1002C3.4418 10.0284 3.40324 9.93101 3.40324 9.82944V4.4682C3.40324 4.36664 3.4418 4.26923 3.51044 4.19742C3.57908 4.1256 3.67217 4.08526 3.76924 4.08526V4.08526ZM5.59921 4.08526C5.69628 4.08526 5.78938 4.1256 5.85801 4.19742C5.92665 4.26923 5.96521 4.36664 5.96521 4.4682V9.82944C5.96521 9.93101 5.92665 10.0284 5.85801 10.1002C5.78938 10.172 5.69628 10.2124 5.59921 10.2124C5.50215 10.2124 5.40905 10.172 5.34042 10.1002C5.27178 10.0284 5.23322 9.93101 5.23322 9.82944V4.4682C5.23322 4.36664 5.27178 4.26923 5.34042 4.19742C5.40905 4.1256 5.50215 4.08526 5.59921 4.08526V4.08526ZM7.79519 4.4682V9.82944C7.79519 9.93101 7.75663 10.0284 7.68799 10.1002C7.61935 10.172 7.52626 10.2124 7.42919 10.2124C7.33212 10.2124 7.23903 10.172 7.17039 10.1002C7.10176 10.0284 7.0632 9.93101 7.0632 9.82944V4.4682C7.0632 4.36664 7.10176 4.26923 7.17039 4.19742C7.23903 4.1256 7.33212 4.08526 7.42919 4.08526C7.52626 4.08526 7.61935 4.1256 7.68799 4.19742C7.75663 4.26923 7.79519 4.36664 7.79519 4.4682V4.4682Z" fill="#2D2A26"/>
</svg>
